<mxfile host="Electron" modified="2024-04-28T17:52:57.811Z" agent="Mozilla/5.0 (Windows NT 10.0; Win64; x64) AppleWebKit/537.36 (KHTML, like Gecko) draw.io/24.2.5 Chrome/120.0.6099.109 Electron/28.1.0 Safari/537.36" etag="KKCm-oGprUl5dbi5C_Q7" version="24.2.5" type="device">
  <diagram name="第 1 页" id="5XBvBNQQo7gbyL0PBxO8">
    <mxGraphModel dx="1695" dy="1246" grid="1" gridSize="10" guides="1" tooltips="1" connect="1" arrows="1" fold="1" page="1" pageScale="1" pageWidth="3300" pageHeight="4681" math="0" shadow="0">
      <root>
        <mxCell id="0" />
        <mxCell id="1" parent="0" />
        <mxCell id="ph8UUXczorFzUwQ-5vVf-1" value="&lt;font style=&quot;font-size: 24px;&quot;&gt;1&lt;/font&gt;" style="rounded=0;whiteSpace=wrap;html=1;" vertex="1" parent="1">
          <mxGeometry x="170" y="240" width="170" height="60" as="geometry" />
        </mxCell>
        <mxCell id="ph8UUXczorFzUwQ-5vVf-2" value="&lt;font style=&quot;font-size: 24px;&quot;&gt;2&lt;/font&gt;" style="rounded=0;whiteSpace=wrap;html=1;" vertex="1" parent="1">
          <mxGeometry x="400" y="240" width="170" height="60" as="geometry" />
        </mxCell>
        <mxCell id="ph8UUXczorFzUwQ-5vVf-3" value="&lt;font style=&quot;font-size: 24px;&quot;&gt;3&lt;/font&gt;" style="rounded=0;whiteSpace=wrap;html=1;" vertex="1" parent="1">
          <mxGeometry x="630" y="240" width="170" height="60" as="geometry" />
        </mxCell>
        <mxCell id="ph8UUXczorFzUwQ-5vVf-4" value="&lt;font style=&quot;font-size: 24px;&quot;&gt;4&lt;/font&gt;" style="rounded=0;whiteSpace=wrap;html=1;" vertex="1" parent="1">
          <mxGeometry x="860" y="240" width="170" height="60" as="geometry" />
        </mxCell>
        <mxCell id="ph8UUXczorFzUwQ-5vVf-5" value="" style="shape=flexArrow;endArrow=classic;html=1;rounded=0;" edge="1" parent="1">
          <mxGeometry width="50" height="50" relative="1" as="geometry">
            <mxPoint x="340" y="269.44" as="sourcePoint" />
            <mxPoint x="400" y="269.44" as="targetPoint" />
          </mxGeometry>
        </mxCell>
        <mxCell id="ph8UUXczorFzUwQ-5vVf-6" value="" style="shape=flexArrow;endArrow=classic;html=1;rounded=0;" edge="1" parent="1">
          <mxGeometry width="50" height="50" relative="1" as="geometry">
            <mxPoint x="570" y="269.44" as="sourcePoint" />
            <mxPoint x="630" y="269.44" as="targetPoint" />
          </mxGeometry>
        </mxCell>
        <mxCell id="ph8UUXczorFzUwQ-5vVf-8" value="" style="shape=flexArrow;endArrow=classic;html=1;rounded=0;" edge="1" parent="1">
          <mxGeometry width="50" height="50" relative="1" as="geometry">
            <mxPoint x="800" y="269.44" as="sourcePoint" />
            <mxPoint x="860" y="269.44" as="targetPoint" />
          </mxGeometry>
        </mxCell>
        <mxCell id="ph8UUXczorFzUwQ-5vVf-9" value="&lt;span style=&quot;font-size: 24px;&quot;&gt;5&lt;/span&gt;" style="rounded=0;whiteSpace=wrap;html=1;" vertex="1" parent="1">
          <mxGeometry x="1090" y="240" width="170" height="60" as="geometry" />
        </mxCell>
        <mxCell id="ph8UUXczorFzUwQ-5vVf-12" value="" style="shape=flexArrow;endArrow=classic;html=1;rounded=0;" edge="1" parent="1">
          <mxGeometry width="50" height="50" relative="1" as="geometry">
            <mxPoint x="1030" y="269.44" as="sourcePoint" />
            <mxPoint x="1090" y="269.44" as="targetPoint" />
          </mxGeometry>
        </mxCell>
        <mxCell id="ph8UUXczorFzUwQ-5vVf-13" value="" style="edgeStyle=elbowEdgeStyle;elbow=vertical;endArrow=classic;html=1;curved=0;rounded=0;endSize=8;startSize=8;exitX=0.5;exitY=0;exitDx=0;exitDy=0;entryX=0.5;entryY=0;entryDx=0;entryDy=0;" edge="1" parent="1" source="ph8UUXczorFzUwQ-5vVf-9" target="ph8UUXczorFzUwQ-5vVf-2">
          <mxGeometry width="50" height="50" relative="1" as="geometry">
            <mxPoint x="1165" y="240" as="sourcePoint" />
            <mxPoint x="850" y="50" as="targetPoint" />
            <Array as="points">
              <mxPoint x="820" y="150" />
            </Array>
          </mxGeometry>
        </mxCell>
        <mxCell id="ph8UUXczorFzUwQ-5vVf-17" value="" style="line;strokeWidth=1;rotatable=0;dashed=0;labelPosition=right;align=left;verticalAlign=middle;spacingTop=0;spacingLeft=6;points=[];portConstraint=eastwest;" vertex="1" parent="1">
          <mxGeometry x="390" y="570" width="820" height="10" as="geometry" />
        </mxCell>
        <mxCell id="ph8UUXczorFzUwQ-5vVf-18" value="" style="verticalLabelPosition=bottom;verticalAlign=top;html=1;shape=mxgraph.flowchart.on-page_reference;" vertex="1" parent="1">
          <mxGeometry x="1000" y="570" width="430" height="430" as="geometry" />
        </mxCell>
        <mxCell id="ph8UUXczorFzUwQ-5vVf-19" value="&lt;font style=&quot;font-size: 24px;&quot;&gt;head&lt;/font&gt;" style="text;html=1;align=center;verticalAlign=middle;resizable=0;points=[];autosize=1;strokeColor=none;fillColor=none;" vertex="1" parent="1">
          <mxGeometry x="360" y="520" width="80" height="40" as="geometry" />
        </mxCell>
        <mxCell id="ph8UUXczorFzUwQ-5vVf-20" value="&lt;font style=&quot;font-size: 24px;&quot;&gt;fast&lt;/font&gt;" style="text;html=1;align=center;verticalAlign=middle;resizable=0;points=[];autosize=1;strokeColor=none;fillColor=none;" vertex="1" parent="1">
          <mxGeometry x="1040" y="960" width="60" height="40" as="geometry" />
        </mxCell>
        <mxCell id="ph8UUXczorFzUwQ-5vVf-21" value="&lt;font style=&quot;font-size: 24px;&quot;&gt;slow&lt;/font&gt;" style="text;html=1;align=center;verticalAlign=middle;resizable=0;points=[];autosize=1;strokeColor=none;fillColor=none;" vertex="1" parent="1">
          <mxGeometry x="1035" y="990" width="70" height="40" as="geometry" />
        </mxCell>
        <mxCell id="ph8UUXczorFzUwQ-5vVf-23" value="" style="shape=flexArrow;endArrow=classic;html=1;rounded=0;" edge="1" parent="1">
          <mxGeometry width="50" height="50" relative="1" as="geometry">
            <mxPoint x="470" y="500" as="sourcePoint" />
            <mxPoint x="1150" y="500" as="targetPoint" />
          </mxGeometry>
        </mxCell>
        <mxCell id="ph8UUXczorFzUwQ-5vVf-24" value="" style="shape=flexArrow;endArrow=classic;html=1;rounded=0;" edge="1" parent="1">
          <mxGeometry width="50" height="50" relative="1" as="geometry">
            <mxPoint x="1480" y="840" as="sourcePoint" />
            <mxPoint x="1390" y="1000" as="targetPoint" />
          </mxGeometry>
        </mxCell>
        <mxCell id="ph8UUXczorFzUwQ-5vVf-25" value="&lt;font style=&quot;font-size: 48px;&quot;&gt;L&lt;/font&gt;" style="text;html=1;align=center;verticalAlign=middle;resizable=0;points=[];autosize=1;strokeColor=none;fillColor=none;" vertex="1" parent="1">
          <mxGeometry x="730" y="600" width="50" height="70" as="geometry" />
        </mxCell>
        <mxCell id="ph8UUXczorFzUwQ-5vVf-26" value="&lt;font style=&quot;font-size: 48px;&quot;&gt;C&lt;/font&gt;" style="text;html=1;align=center;verticalAlign=middle;resizable=0;points=[];autosize=1;strokeColor=none;fillColor=none;" vertex="1" parent="1">
          <mxGeometry x="1185" y="750" width="60" height="70" as="geometry" />
        </mxCell>
        <mxCell id="ph8UUXczorFzUwQ-5vVf-32" value="" style="verticalLabelPosition=bottom;verticalAlign=top;html=1;shape=mxgraph.basic.arc;startAngle=0.9911671385559326;endAngle=0.5760761726585448;fillColor=#008a00;fontColor=#ffffff;strokeColor=#005700;strokeWidth=7;" vertex="1" parent="1">
          <mxGeometry x="990" y="550" width="470" height="470" as="geometry" />
        </mxCell>
        <mxCell id="ph8UUXczorFzUwQ-5vVf-36" value="&lt;font style=&quot;font-size: 36px;&quot;&gt;N&lt;/font&gt;" style="text;html=1;align=center;verticalAlign=middle;resizable=0;points=[];autosize=1;strokeColor=none;fillColor=none;" vertex="1" parent="1">
          <mxGeometry x="1460" y="720" width="50" height="60" as="geometry" />
        </mxCell>
      </root>
    </mxGraphModel>
  </diagram>
</mxfile>
